# xmcd
# Copyright (C) 1995-1998 Ti Kan
#
# Track frame offsets:
#       150
#       16475
#       38297
#       57250
#       74105
#
# Disc length: 1317 seconds
#
# Revision: 0
# Processed by: cddbd v1.5.1PL0 Copyright (c) Steve Scherf et al.
# Submitted via: CD-Transfer v1.0
#
DISCID=3d052305
DTITLE=Bogus - 
DYEAR=99
DGENRE=
TTITLE0=starhead
TTITLE1=electricity
TTITLE2=there are 4 reasons
TTITLE3=the crash
TTITLE4=don't wake me
EXTD=
EXTT0=
EXTT1=
EXTT2=
EXTT3=
EXTT4=
PLAYORDER=
